<!-- by TradingView --><svg width="56" height="56" viewBox="0 0 56 56" xmlns="http://www.w3.org/2000/svg"><path fill="#F0F3FA" d="M0 0h56v56H0z"/><path d="M4 28c0-2.33 1.82-4 4.27-4 1.36 0 2.5.49 3.24 1.37l-1.17 1.06c-.53-.6-1.2-.9-1.98-.9-1.47 0-2.52 1.01-2.52 2.47 0 1.46 1.05 2.48 2.52 2.48.79 0 1.45-.31 1.98-.92l1.17 1.06A4.08 4.08 0 0 1 8.26 32C5.82 32 4 30.33 4 28Z" fill="#F15B40"/><path d="M23 26.39h1.46v1.28H23V32h-1.99v-4.33H20v-1.28h1.05v-.26c0-1.29.85-2.13 2.42-2.13.52 0 1.06.1 1.4.31l-.48 1.2c-.22-.13-.48-.2-.74-.2-.54 0-.65.27-.65.83v.25ZM24.87 29c0-1.75 1.45-3 3.43-3 1.98 0 3.41 1.25 3.41 3s-1.45 3-3.43 3c-1.98 0-3.4-1.25-3.4-3Zm5.01 0c0-1-.68-1.61-1.58-1.61s-1.6.6-1.6 1.61c0 1 .7 1.61 1.6 1.61.9 0 1.58-.6 1.58-1.61M37 26v1.58l-.42-.02c-1.02 0-1.58.5-1.58 1.63V32h-2v-6h1.8v.87C35.25 26.3 36 26 37 26ZM44.48 26.09v4.79c0 2.14-1.32 3.12-3.65 3.12a5.8 5.8 0 0 1-3.16-.8l.74-1.19c.55.4 1.45.65 2.28.65 1.32 0 1.92-.53 1.92-1.57v-.25c-.5.49-1.2.72-2.04.72-1.8 0-3.23-1.1-3.23-2.78 0-1.68 1.44-2.78 3.23-2.78.9 0 1.64.27 2.13.82v-.73h1.78Zm-1.85 2.7c0-.85-.7-1.42-1.7-1.42-.98 0-1.7.57-1.7 1.41 0 .85.72 1.41 1.7 1.41 1 0 1.7-.56 1.7-1.4ZM51.96 29.48H47c.19.72.88 1.17 1.88 1.17.7 0 1.2-.19 1.65-.57l1 .98c-.6.61-1.54.94-2.72.94-2.26 0-3.72-1.27-3.72-3 0-1.74 1.5-3 3.5-3C50.5 26 52 27.15 52 29.02c0 .13-.02.32-.04.46m-4.98-.99h3.23c-.14-.74-.76-1.21-1.61-1.21-.87 0-1.49.46-1.62 1.21Z" fill="#082340"/><path d="M15.77 30.61c-.9 0-1.6-.6-1.6-1.61 0-1 .7-1.61 1.6-1.61V26c-1.98 0-3.42 1.25-3.42 3s1.43 3 3.4 3h.02v-1.39Z" fill="#F15B40"/><path d="M15.77 30.61c.9 0 1.59-.6 1.59-1.61 0-1-.7-1.61-1.6-1.61V26c1.98 0 3.43 1.25 3.43 3s-1.43 3-3.41 3h-.01v-1.39Z" fill="#082340"/></svg>